Sources
<glyph name="ampersand" format="2">
  <advance width="775" height="1000"/>
  <unicode hex="0026"/>
  <outline>
    <contour>
      <point x="527" y="11" type="line"/>
      <point x="98" y="-27" type="line"/>
      <point x="91" y="301" type="line"/>
      <point x="237" y="353" type="line"/>
      <point x="166" y="409" type="line"/>
      <point x="163" y="490"/>
      <point x="160" y="591"/>
      <point x="158" y="648"/>
      <point x="157" y="676"/>
      <point x="157" y="684" type="qcurve"/>
      <point x="579" y="720" type="line"/>
      <point x="592" y="430" type="line"/>
      <point x="399" y="358" type="line"/>
      <point x="365" y="432" type="line"/>
      <point x="503" y="482" type="line"/>
      <point x="496" y="631" type="line"/>
      <point x="244" y="608" type="line"/>
      <point x="251" y="438" type="line"/>
      <point x="567" y="199" type="line"/>
      <point x="662" y="317" type="line"/>
      <point x="731" y="261" type="line"/>
      <point x="637" y="146" type="line"/>
      <point x="777" y="39" type="line"/>
      <point x="724" y="-27" type="line"/>
      <point x="585" y="82" type="line"/>
    </contour>
    <contour>
      <point x="308" y="298" type="line"/>
      <point x="176" y="248" type="line"/>
      <point x="183" y="61" type="line"/>
      <point x="479" y="91" type="line"/>
      <point x="516" y="136" type="line"/>
    </contour>
  </outline>
</glyph>
<glyph name="asterisk" format="2">
  <advance width="499" height="1000"/>
  <unicode hex="002A"/>
  <outline>
    <contour>
      <point x="295" y="389" type="line"/>
      <point x="205" y="389" type="line"/>
      <point x="233" y="518" type="line"/>
      <point x="136" y="426" type="line"/>
      <point x="89" y="503" type="line"/>
      <point x="217" y="546" type="line"/>
      <point x="89" y="590" type="line"/>
      <point x="136" y="667" type="line"/>
      <point x="233" y="575" type="line"/>
      <point x="205" y="704" type="line"/>
      <point x="295" y="704" type="line"/>
      <point x="268" y="576" type="line"/>
      <point x="363" y="667" type="line"/>
      <point x="410" y="590" type="line"/>
      <point x="284" y="546" type="line"/>
      <point x="410" y="503" type="line"/>
      <point x="363" y="426" type="line"/>
      <point x="268" y="517" type="line"/>
    </contour>
  </outline>
</glyph>
<glyph name="at" format="2">
  <advance width="942" height="1000"/>
  <unicode hex="0040"/>
  <outline>
    <contour>
      <point x="533" y="521" type="line"/>
      <point x="379" y="489" type="line"/>
      <point x="329" y="332" type="line"/>
      <point x="389" y="185" type="line"/>
      <point x="557" y="239" type="line"/>
      <point x="585" y="162" type="line"/>
      <point x="339" y="81" type="line"/>
      <point x="236" y="328" type="line"/>
      <point x="311" y="560" type="line"/>
      <point x="603" y="616" type="line"/>
      <point x="692" y="217" type="line"/>
      <point x="769" y="218" type="line"/>
      <point x="797" y="280"/>
      <point x="797" y="349" type="qcurve"/>
      <point x="797" y="424"/>
      <point x="741" y="545"/>
      <point x="647" y="630"/>
      <point x="532" y="676"/>
      <point x="472" y="676" type="qcurve"/>
      <point x="403" y="676"/>
      <point x="284" y="625"/>
      <point x="194" y="535"/>
      <point x="144" y="418"/>
      <point x="144" y="351" type="qcurve"/>
      <point x="144" y="285"/>
      <point x="193" y="167"/>
      <point x="282" y="75"/>
      <point x="401" y="23"/>
      <point x="470" y="23" type="qcurve"/>
      <point x="515" y="23"/>
      <point x="595" y="44"/>
      <point x="654" y="70"/>
      <point x="665" y="76" type="qcurve"/>
      <point x="692" y="13" type="line"/>
      <point x="657" y="-5"/>
      <point x="539" y="-38"/>
      <point x="471" y="-38" type="qcurve"/>
      <point x="387" y="-38"/>
      <point x="246" y="24"/>
      <point x="142" y="133"/>
      <point x="84" y="273"/>
      <point x="84" y="350" type="qcurve"/>
      <point x="84" y="428"/>
      <point x="143" y="568"/>
      <point x="248" y="676"/>
      <point x="389" y="737"/>
      <point x="471" y="737" type="qcurve"/>
      <point x="549" y="737"/>
      <point x="689" y="679"/>
      <point x="796" y="574"/>
      <point x="858" y="434"/>
      <point x="858" y="352" type="qcurve"/>
      <point x="858" y="305"/>
      <point x="829" y="191"/>
      <point x="793" y="135" type="qcurve"/>
      <point x="792" y="133" type="line"/>
      <point x="620" y="132" type="line"/>
    </contour>
  </outline>
</glyph>
<glyph name="A" format="2">
  <advance width="741" height="1000"/>
  <unicode hex="0041"/>
  <outline>
    <contour>
      <point x="532" y="228" type="line"/>
      <point x="268" y="198" type="line"/>
      <point x="260" y="283" type="line"/>
      <point x="499" y="308" type="line"/>
      <point x="338" y="702" type="line"/>
      <point x="416" y="732" type="line"/>
      <point x="724" y="11" type="line"/>
      <point x="634" y="-23" type="line"/>
    </contour>
    <contour>
      <point x="270" y="615" type="line"/>
      <point x="353" y="590" type="line"/>
      <point x="103" y="-27" type="line"/>
      <point x="18" y="-4" type="line"/>
    </contour>
  </outline>
</glyph>
<glyph name="asciicircum" format="2">
  <advance width="574" height="1000"/>
  <unicode hex="005E"/>
  <outline>
    <contour>
      <point x="287" y="636" type="line"/>
      <point x="127" y="321" type="line"/>
      <point x="53" y="352" type="line"/>
      <point x="247" y="712" type="line"/>
      <point x="327" y="712" type="line"/>
      <point x="521" y="352" type="line"/>
      <point x="447" y="321" type="line"/>
    </contour>
  </outline>
</glyph>
<glyph name="asciitilde" format="2">
  <advance width="506" height="1000"/>
  <unicode hex="007E"/>
  <unicode hex="223C"/>
  <outline>
    <contour>
      <point x="214" y="231" type="line"/>
      <point x="67" y="157" type="line"/>
      <point x="20" y="236" type="line"/>
      <point x="238" y="346" type="line"/>
      <point x="293" y="272" type="line"/>
      <point x="439" y="346" type="line"/>
      <point x="486" y="267" type="line"/>
      <point x="268" y="157" type="line"/>
    </contour>
  </outline>
</glyph>
<glyph name="Agrave" format="2">
  <advance width="741" height="1000"/>
  <unicode hex="00C0"/>
  <outline>
    <contour>
      <point x="291" y="932" type="line"/>
      <point x="435" y="796" type="line"/>
      <point x="387" y="742" type="line"/>
      <point x="226" y="857" type="line"/>
    </contour>
    <contour>
      <point x="532" y="228" type="line"/>
      <point x="268" y="198" type="line"/>
      <point x="260" y="283" type="line"/>
      <point x="499" y="308" type="line"/>
      <point x="338" y="702" type="line"/>
      <point x="416" y="732" type="line"/>
      <point x="724" y="11" type="line"/>
      <point x="634" y="-23" type="line"/>
    </contour>
    <contour>
      <point x="270" y="615" type="line"/>
      <point x="353" y="590" type="line"/>
      <point x="103" y="-27" type="line"/>
      <point x="18" y="-4" type="line"/>
    </contour>
  </outline>
</glyph>
<glyph name="Acircumflex" format="2">
  <advance width="741" height="1000"/>
  <unicode hex="00C2"/>
  <outline>
    <contour>
      <point x="370" y="835" type="line"/>
      <point x="268" y="741" type="line"/>
      <point x="219" y="781" type="line"/>
      <point x="336" y="922" type="line"/>
      <point x="405" y="922" type="line"/>
      <point x="522" y="781" type="line"/>
      <point x="473" y="741" type="line"/>
    </contour>
    <contour>
      <point x="532" y="228" type="line"/>
      <point x="268" y="198" type="line"/>
      <point x="260" y="283" type="line"/>
      <point x="499" y="308" type="line"/>
      <point x="338" y="702" type="line"/>
      <point x="416" y="732" type="line"/>
      <point x="724" y="11" type="line"/>
      <point x="634" y="-23" type="line"/>
    </contour>
    <contour>
      <point x="270" y="615" type="line"/>
      <point x="353" y="590" type="line"/>
      <point x="103" y="-27" type="line"/>
      <point x="18" y="-4" type="line"/>
    </contour>
  </outline>
</glyph>
<glyph name="Atilde" format="2">
  <advance width="741" height="1000"/>
  <unicode hex="00C3"/>
  <outline>
    <contour>
      <point x="338" y="825" type="line"/>
      <point x="226" y="766" type="line"/>
      <point x="188" y="832" type="line"/>
      <point x="360" y="919" type="line"/>
      <point x="403" y="855" type="line"/>
      <point x="515" y="913" type="line"/>
      <point x="552" y="847" type="line"/>
      <point x="380" y="760" type="line"/>
    </contour>
    <contour>
      <point x="532" y="228" type="line"/>
      <point x="268" y="198" type="line"/>
      <point x="260" y="283" type="line"/>
      <point x="499" y="308" type="line"/>
      <point x="338" y="702" type="line"/>
      <point x="416" y="732" type="line"/>
      <point x="724" y="11" type="line"/>
      <point x="634" y="-23" type="line"/>
    </contour>
    <contour>
      <point x="270" y="615" type="line"/>
      <point x="353" y="590" type="line"/>
      <point x="103" y="-27" type="line"/>
      <point x="18" y="-4" type="line"/>
    </contour>
  </outline>
</glyph>
<glyph name="Aring" format="2">
  <advance width="741" height="1000"/>
  <unicode hex="00C5"/>
  <outline>
    <contour>
      <point x="477" y="854" type="qcurve"/>
      <point x="477" y="808"/>
      <point x="412" y="742"/>
      <point x="365" y="742" type="qcurve"/>
      <point x="319" y="742"/>
      <point x="253" y="808"/>
      <point x="253" y="854" type="qcurve"/>
      <point x="253" y="901"/>
      <point x="319" y="966"/>
      <point x="365" y="966" type="qcurve"/>
      <point x="412" y="966"/>
      <point x="477" y="901"/>
    </contour>
    <contour>
      <point x="421" y="854" type="qcurve"/>
      <point x="421" y="877"/>
      <point x="388" y="910"/>
      <point x="365" y="910" type="qcurve"/>
      <point x="342" y="910"/>
      <point x="309" y="877"/>
      <point x="309" y="854" type="qcurve"/>
      <point x="309" y="831"/>
      <point x="342" y="798"/>
      <point x="365" y="798" type="qcurve"/>
      <point x="388" y="798"/>
      <point x="421" y="831"/>
    </contour>
    <contour>
      <point x="532" y="228" type="line"/>
      <point x="268" y="198" type="line"/>
      <point x="260" y="283" type="line"/>
      <point x="499" y="308" type="line"/>
      <point x="338" y="702" type="line"/>
      <point x="416" y="732" type="line"/>
      <point x="724" y="11" type="line"/>
      <point x="634" y="-23" type="line"/>
    </contour>
    <contour>
      <point x="270" y="615" type="line"/>
      <point x="353" y="590" type="line"/>
      <point x="103" y="-27" type="line"/>
      <point x="18" y="-4" type="line"/>
    </contour>
  </outline>
</glyph>
<glyph name="AE" format="2">
  <advance width="942" height="1000"/>
  <unicode hex="00C6"/>
  <outline>
    <contour>
      <point x="378" y="690" type="line"/>
      <point x="907" y="726" type="line"/>
      <point x="911" y="643" type="line"/>
      <point x="383" y="606" type="line"/>
    </contour>
    <contour>
      <point x="285" y="619" type="line"/>
      <point x="367" y="592" type="line"/>
      <point x="105" y="-25" type="line"/>
      <point x="23" y="4" type="line"/>
    </contour>
    <contour>
      <point x="456" y="226" type="line"/>
      <point x="272" y="205" type="line"/>
      <point x="264" y="291" type="line"/>
      <point x="456" y="310" type="line"/>
      <point x="456" y="563" type="line"/>
      <point x="547" y="563" type="line"/>
      <point x="547" y="64" type="line"/>
      <point x="913" y="104" type="line"/>
      <point x="921" y="20" type="line"/>
      <point x="456" y="-25" type="line"/>
    </contour>
    <contour>
      <point x="581" y="408" type="line"/>
      <point x="818" y="428" type="line"/>
      <point x="824" y="345" type="line"/>
      <point x="587" y="322" type="line"/>
    </contour>
  </outline>
</glyph>
<glyph name="acircumflex" format="2">
  <advance width="514" height="1000"/>
  <unicode hex="00E2"/>
  <outline>
    <contour>
      <point x="227" y="668" type="line"/>
      <point x="138" y="580" type="line"/>
      <point x="92" y="615" type="line"/>
      <point x="194" y="748" type="line"/>
      <point x="259" y="748" type="line"/>
      <point x="361" y="615" type="line"/>
      <point x="315" y="580" type="line"/>
    </contour>
    <contour>
      <point x="392" y="69" type="line"/>
      <point x="111" y="-24" type="line"/>
      <point x="29" y="253" type="line"/>
      <point x="270" y="351" type="line"/>
      <point x="299" y="278" type="line"/>
      <point x="129" y="210" type="line"/>
      <point x="169" y="82" type="line"/>
      <point x="374" y="147" type="line"/>
      <point x="311" y="428" type="line"/>
      <point x="58" y="379" type="line"/>
      <point x="39" y="458" type="line"/>
      <point x="379" y="521" type="line"/>
      <point x="497" y="0" type="line"/>
      <point x="412" y="-24" type="line"/>
    </contour>
  </outline>
</glyph>
<glyph name="atilde" format="2">
  <advance width="514" height="1000"/>
  <unicode hex="00E3"/>
  <outline>
    <contour>
      <point x="184" y="645" type="line"/>
      <point x="82" y="591" type="line"/>
      <point x="47" y="653" type="line"/>
      <point x="206" y="732" type="line"/>
      <point x="245" y="674" type="line"/>
      <point x="347" y="727" type="line"/>
      <point x="382" y="665" type="line"/>
      <point x="223" y="586" type="line"/>
    </contour>
    <contour>
      <point x="392" y="69" type="line"/>
      <point x="111" y="-24" type="line"/>
      <point x="29" y="253" type="line"/>
      <point x="270" y="351" type="line"/>
      <point x="299" y="278" type="line"/>
      <point x="129" y="210" type="line"/>
      <point x="169" y="82" type="line"/>
      <point x="374" y="147" type="line"/>
      <point x="311" y="428" type="line"/>
      <point x="58" y="379" type="line"/>
      <point x="39" y="458" type="line"/>
      <point x="379" y="521" type="line"/>
      <point x="497" y="0" type="line"/>
      <point x="412" y="-24" type="line"/>
    </contour>
  </outline>
</glyph>
<glyph name="aring" format="2">
  <advance width="514" height="1000"/>
  <unicode hex="00E5"/>
  <outline>
    <contour>
      <point x="311" y="671" type="qcurve"/>
      <point x="311" y="628"/>
      <point x="252" y="569"/>
      <point x="209" y="569" type="qcurve"/>
      <point x="166" y="569"/>
      <point x="107" y="628"/>
      <point x="107" y="671" type="qcurve"/>
      <point x="107" y="714"/>
      <point x="166" y="773"/>
      <point x="209" y="773" type="qcurve"/>
      <point x="252" y="773"/>
      <point x="311" y="714"/>
    </contour>
    <contour>
      <point x="260" y="671" type="qcurve"/>
      <point x="260" y="692"/>
      <point x="230" y="722"/>
      <point x="209" y="722" type="qcurve"/>
      <point x="188" y="722"/>
      <point x="158" y="692"/>
      <point x="158" y="671" type="qcurve"/>
      <point x="158" y="650"/>
      <point x="188" y="620"/>
      <point x="209" y="620" type="qcurve"/>
      <point x="230" y="620"/>
      <point x="260" y="650"/>
    </contour>
    <contour>
      <point x="392" y="69" type="line"/>
      <point x="111" y="-24" type="line"/>
      <point x="29" y="253" type="line"/>
      <point x="270" y="351" type="line"/>
      <point x="299" y="278" type="line"/>
      <point x="129" y="210" type="line"/>
      <point x="169" y="82" type="line"/>
      <point x="374" y="147" type="line"/>
      <point x="311" y="428" type="line"/>
      <point x="58" y="379" type="line"/>
      <point x="39" y="458" type="line"/>
      <point x="379" y="521" type="line"/>
      <point x="497" y="0" type="line"/>
      <point x="412" y="-24" type="line"/>
    </contour>
  </outline>
</glyph>
<glyph name="ae" format="2">
  <advance width="785" height="1000"/>
  <unicode hex="00E6"/>
  <outline>
    <contour>
      <point x="388" y="68" type="line"/>
      <point x="107" y="-25" type="line"/>
      <point x="25" y="252" type="line"/>
      <point x="267" y="350" type="line"/>
      <point x="295" y="277" type="line"/>
      <point x="125" y="209" type="line"/>
      <point x="166" y="81" type="line"/>
      <point x="371" y="147" type="line"/>
      <point x="308" y="427" type="line"/>
      <point x="70" y="381" type="line"/>
      <point x="50" y="460" type="line"/>
      <point x="375" y="520" type="line"/>
      <point x="382" y="490" type="line"/>
      <point x="721" y="525" type="line"/>
      <point x="695" y="210" type="line"/>
      <point x="491" y="210" type="line"/>
      <point x="491" y="290" type="line"/>
      <point x="609" y="290" type="line"/>
      <point x="624" y="436" type="line"/>
      <point x="399" y="413" type="line"/>
      <point x="474" y="68" type="line"/>
      <point x="755" y="113" type="line"/>
      <point x="766" y="31" type="line"/>
      <point x="409" y="-23" type="line"/>
    </contour>
  </outline>
</glyph>
<glyph name="Abreve" format="2">
  <advance width="741" height="1000"/>
  <unicode hex="0102"/>
  <outline>
    <contour>
      <point x="532" y="228" type="line"/>
      <point x="268" y="198" type="line"/>
      <point x="260" y="283" type="line"/>
      <point x="499" y="308" type="line"/>
      <point x="338" y="702" type="line"/>
      <point x="416" y="732" type="line"/>
      <point x="724" y="11" type="line"/>
      <point x="634" y="-23" type="line"/>
    </contour>
    <contour>
      <point x="270" y="615" type="line"/>
      <point x="353" y="590" type="line"/>
      <point x="103" y="-27" type="line"/>
      <point x="18" y="-4" type="line"/>
    </contour>
    <contour>
      <point x="529" y="862" type="line"/>
      <point x="504" y="822"/>
      <point x="418" y="783"/>
      <point x="371" y="783" type="qcurve"/>
      <point x="325" y="783"/>
      <point x="238" y="822"/>
      <point x="213" y="862" type="qcurve"/>
      <point x="281" y="910" type="line"/>
      <point x="292" y="892"/>
      <point x="345" y="862"/>
      <point x="371" y="862" type="qcurve"/>
      <point x="397" y="862"/>
      <point x="450" y="892"/>
      <point x="461" y="910" type="qcurve"/>
    </contour>
  </outline>
</glyph>
<glyph name="abreve" format="2">
  <advance width="514" height="1000"/>
  <unicode hex="0103"/>
  <outline>
    <contour>
      <point x="392" y="69" type="line"/>
      <point x="111" y="-24" type="line"/>
      <point x="29" y="253" type="line"/>
      <point x="270" y="351" type="line"/>
      <point x="299" y="278" type="line"/>
      <point x="129" y="210" type="line"/>
      <point x="169" y="82" type="line"/>
      <point x="374" y="147" type="line"/>
      <point x="311" y="428" type="line"/>
      <point x="58" y="379" type="line"/>
      <point x="39" y="458" type="line"/>
      <point x="379" y="521" type="line"/>
      <point x="497" y="0" type="line"/>
      <point x="412" y="-24" type="line"/>
    </contour>
    <contour>
      <point x="408" y="671" type="line"/>
      <point x="383" y="631"/>
      <point x="297" y="592"/>
      <point x="250" y="592" type="qcurve"/>
      <point x="204" y="592"/>
      <point x="117" y="631"/>
      <point x="92" y="671" type="qcurve"/>
      <point x="160" y="719" type="line"/>
      <point x="171" y="701"/>
      <point x="224" y="671"/>
      <point x="250" y="671" type="qcurve"/>
      <point x="276" y="671"/>
      <point x="329" y="701"/>
      <point x="340" y="719" type="qcurve"/>
    </contour>
  </outline>
</glyph>
<glyph name="Acaron" format="2">
  <advance width="741" height="1000"/>
  <unicode hex="01CD"/>
  <outline>
    <contour>
      <point x="532" y="228" type="line"/>
      <point x="268" y="198" type="line"/>
      <point x="260" y="283" type="line"/>
      <point x="499" y="308" type="line"/>
      <point x="338" y="702" type="line"/>
      <point x="416" y="732" type="line"/>
      <point x="724" y="11" type="line"/>
      <point x="634" y="-23" type="line"/>
    </contour>
    <contour>
      <point x="270" y="615" type="line"/>
      <point x="353" y="590" type="line"/>
      <point x="103" y="-27" type="line"/>
      <point x="18" y="-4" type="line"/>
    </contour>
    <contour>
      <point x="236" y="880" type="line"/>
      <point x="283" y="915" type="line"/>
      <point x="371" y="827" type="line"/>
      <point x="459" y="915" type="line"/>
      <point x="506" y="880" type="line"/>
      <point x="403" y="747" type="line"/>
      <point x="339" y="747" type="line"/>
    </contour>
  </outline>
</glyph>
<glyph name="alpha" format="2">
  <advance width="535" height="1000"/>
  <unicode hex="0251"/>
  <outline>
    <contour>
      <point x="392" y="69" type="line"/>
      <point x="33" y="-31" type="line"/>
      <point x="92" y="75" type="line"/>
      <point x="374" y="147" type="line"/>
    </contour>
    <contour>
      <point x="367" y="521" type="line"/>
      <point x="455" y="521" type="line"/>
      <point x="463" y="-21" type="line"/>
      <point x="376" y="-21" type="line"/>
    </contour>
    <contour>
      <point x="313" y="404" type="line"/>
      <point x="159" y="417" type="line"/>
      <point x="128" y="41" type="line"/>
      <point x="33" y="-31" type="line"/>
      <point x="83" y="506" type="line"/>
      <point x="324" y="484" type="line"/>
    </contour>
  </outline>
</glyph>
<glyph name="apostrophemod" format="2">
  <advance width="296" height="1000"/>
  <unicode hex="02BC"/>
  <outline>
    <contour>
      <point x="80" y="474" type="line"/>
      <point x="100" y="491"/>
      <point x="132" y="541"/>
      <point x="132" y="563" type="qcurve"/>
      <point x="132" y="580"/>
      <point x="112" y="615"/>
      <point x="84" y="645"/>
      <point x="72" y="654" type="qcurve"/>
      <point x="157" y="723" type="line"/>
      <point x="166" y="717"/>
      <point x="199" y="683"/>
      <point x="225" y="635"/>
      <point x="225" y="607" type="qcurve"/>
      <point x="225" y="572"/>
      <point x="189" y="505"/>
      <point x="141" y="453"/>
      <point x="122" y="439" type="qcurve"/>
    </contour>
  </outline>
</glyph>
<glyph name="acutemod" format="2">
  <advance width="1000" height="1000"/>
  <unicode hex="02CA"/>
  <outline>
    <contour>
      <point x="289" y="493" type="line"/>
      <point x="622" y="765" type="line"/>
      <point x="682" y="686" type="line"/>
      <point x="333" y="443" type="line"/>
    </contour>
  </outline>
</glyph>
<glyph name="acutemod.1" format="2">
  <advance width="0" height="1000"/>
  <unicode hex="0301"/>
  <outline>
    <contour>
      <point x="172" y="630" type="line"/>
      <point x="304" y="755" type="line"/>
      <point x="363" y="686" type="line"/>
      <point x="216" y="580" type="line"/>
    </contour>
  </outline>
</glyph>
<glyph name="alphatonos-grek" format="2">
  <advance width="559" height="1000"/>
  <unicode hex="03AC"/>
  <outline>
    <contour>
      <point x="201" y="630" type="line"/>
      <point x="333" y="755" type="line"/>
      <point x="392" y="686" type="line"/>
      <point x="245" y="580" type="line"/>
    </contour>
    <contour>
      <point x="419" y="-19" type="line"/>
      <point x="320" y="433" type="line"/>
      <point x="138" y="416" type="line"/>
      <point x="139" y="80" type="line"/>
      <point x="251" y="71" type="line"/>
      <point x="299" y="178" type="line"/>
      <point x="369" y="135" type="line"/>
      <point x="305" y="-14" type="line"/>
      <point x="52" y="0" type="line"/>
      <point x="54" y="487" type="line"/>
      <point x="384" y="517" type="line"/>
      <point x="413" y="363" type="line"/>
      <point x="469" y="498" type="line"/>
      <point x="542" y="460" type="line"/>
      <point x="444" y="262" type="line"/>
      <point x="503" y="1" type="line"/>
    </contour>
  </outline>
</glyph>
<glyph name="Angstromsign" format="2">
  <advance width="1000" height="1000"/>
  <unicode hex="212B"/>
  <outline>
    <contour>
      <point x="604" y="775" type="qcurve"/>
      <point x="604" y="732"/>
      <point x="543" y="670"/>
      <point x="499" y="670" type="qcurve"/>
      <point x="456" y="670"/>
      <point x="394" y="732"/>
      <point x="394" y="775" type="qcurve"/>
      <point x="394" y="819"/>
      <point x="456" y="880"/>
      <point x="499" y="880" type="qcurve"/>
      <point x="543" y="880"/>
      <point x="604" y="819"/>
    </contour>
    <contour>
      <point x="552" y="775" type="qcurve"/>
      <point x="552" y="797"/>
      <point x="521" y="828"/>
      <point x="499" y="828" type="qcurve"/>
      <point x="477" y="828"/>
      <point x="446" y="797"/>
      <point x="446" y="775" type="qcurve"/>
      <point x="446" y="753"/>
      <point x="477" y="722"/>
      <point x="499" y="722" type="qcurve"/>
      <point x="521" y="722"/>
      <point x="552" y="753"/>
    </contour>
    <contour>
      <point x="661" y="228" type="line"/>
      <point x="397" y="198" type="line"/>
      <point x="389" y="283" type="line"/>
      <point x="628" y="308" type="line"/>
      <point x="496" y="631" type="line"/>
      <point x="576" y="661" type="line"/>
      <point x="853" y="11" type="line"/>
      <point x="763" y="-23" type="line"/>
    </contour>
    <contour>
      <point x="399" y="615" type="line"/>
      <point x="482" y="590" type="line"/>
      <point x="232" y="-27" type="line"/>
      <point x="147" y="-4" type="line"/>
    </contour>
  </outline>
</glyph>
<glyph name="angle" format="2">
  <advance width="1000" height="1000"/>
  <unicode hex="2220"/>
  <outline>
    <contour>
      <point x="171" y="126" type="line"/>
      <point x="655" y="678" type="line"/>
      <point x="717" y="625" type="line"/>
      <point x="292" y="146" type="line"/>
      <point x="779" y="146" type="line"/>
      <point x="779" y="67" type="line"/>
      <point x="201" y="67" type="line"/>
    </contour>
  </outline>
</glyph>
<glyph name="almostequalto" format="2">
  <advance width="643" height="1000"/>
  <unicode hex="2248"/>
  <outline>
    <contour>
      <point x="336" y="264" type="line"/>
      <point x="271" y="338" type="line"/>
      <point x="95" y="264" type="line"/>
      <point x="44" y="336" type="line"/>
      <point x="296" y="442" type="line"/>
      <point x="362" y="368" type="line"/>
      <point x="537" y="442" type="line"/>
      <point x="589" y="370" type="line"/>
    </contour>
    <contour>
      <point x="337" y="60" type="line"/>
      <point x="272" y="134" type="line"/>
      <point x="96" y="60" type="line"/>
      <point x="44" y="132" type="line"/>
      <point x="297" y="238" type="line"/>
      <point x="363" y="164" type="line"/>
      <point x="538" y="238" type="line"/>
      <point x="589" y="166" type="line"/>
    </contour>
  </outline>
</glyph>
<glyph name="allequalto" format="2">
  <advance width="643" height="1000"/>
  <unicode hex="224C"/>
  <outline>
    <contour>
      <point x="49" y="387" type="line"/>
      <point x="594" y="387" type="line"/>
      <point x="594" y="319" type="line"/>
      <point x="49" y="319" type="line"/>
    </contour>
    <contour>
      <point x="49" y="183" type="line"/>
      <point x="594" y="183" type="line"/>
      <point x="594" y="115" type="line"/>
      <point x="49" y="115" type="line"/>
    </contour>
    <contour>
      <point x="346" y="570" type="line"/>
      <point x="292" y="496" type="line"/>
      <point x="74" y="606" type="line"/>
      <point x="121" y="685" type="line"/>
      <point x="267" y="611" type="line"/>
      <point x="322" y="685" type="line"/>
      <point x="540" y="575" type="line"/>
      <point x="493" y="496" type="line"/>
    </contour>
  </outline>
</glyph>
<glyph name="approximatelyequaltoortheimageof" format="2">
  <advance width="1000" height="1000"/>
  <unicode hex="2252"/>
  <outline>
    <contour>
      <point x="437" y="619" type="qcurve"/>
      <point x="437" y="590"/>
      <point x="394" y="548"/>
      <point x="365" y="548" type="qcurve"/>
      <point x="336" y="548"/>
      <point x="294" y="590"/>
      <point x="294" y="619" type="qcurve"/>
      <point x="294" y="648"/>
      <point x="336" y="691"/>
      <point x="365" y="691" type="qcurve"/>
      <point x="394" y="691"/>
      <point x="437" y="648"/>
    </contour>
    <contour>
      <point x="178" y="489" type="line"/>
      <point x="822" y="489" type="line"/>
      <point x="822" y="411" type="line"/>
      <point x="178" y="411" type="line"/>
    </contour>
    <contour>
      <point x="178" y="298" type="line"/>
      <point x="822" y="298" type="line"/>
      <point x="822" y="219" type="line"/>
      <point x="178" y="219" type="line"/>
    </contour>
    <contour>
      <point x="706" y="88" type="qcurve"/>
      <point x="706" y="60"/>
      <point x="665" y="18"/>
      <point x="636" y="18" type="qcurve"/>
      <point x="608" y="18"/>
      <point x="566" y="60"/>
      <point x="566" y="88" type="qcurve"/>
      <point x="566" y="117"/>
      <point x="608" y="157"/>
      <point x="636" y="157" type="qcurve"/>
      <point x="665" y="157"/>
      <point x="706" y="117"/>
    </contour>
  </outline>
</glyph>
<glyph name="arc" format="2">
  <advance width="1000" height="1000"/>
  <unicode hex="2312"/>
  <outline>
    <contour>
      <point x="932" y="607" type="line"/>
      <point x="850" y="663"/>
      <point x="632" y="740"/>
      <point x="500" y="740" type="qcurve"/>
      <point x="368" y="740"/>
      <point x="150" y="663"/>
      <point x="68" y="607" type="qcurve"/>
      <point x="29" y="669" type="line"/>
      <point x="121" y="736"/>
      <point x="359" y="826"/>
      <point x="500" y="826" type="qcurve"/>
      <point x="641" y="826"/>
      <point x="880" y="736"/>
      <point x="971" y="669" type="qcurve"/>
    </contour>
  </outline>
</glyph>
<glyph name="aparenthesized" format="2">
  <advance width="1000" height="1000"/>
  <unicode hex="249C"/>
  <outline>
    <contour>
      <point x="778" y="-47" type="line"/>
      <point x="817" y="-11"/>
      <point x="880" y="121"/>
      <point x="917" y="290"/>
      <point x="917" y="380" type="qcurve"/>
      <point x="917" y="471"/>
      <point x="880" y="639"/>
      <point x="817" y="771"/>
      <point x="778" y="807" type="qcurve"/>
      <point x="823" y="845" type="line"/>
      <point x="874" y="796"/>
      <point x="944" y="650"/>
      <point x="980" y="474"/>
      <point x="980" y="380" type="qcurve"/>
      <point x="980" y="287"/>
      <point x="944" y="110"/>
      <point x="874" y="-36"/>
      <point x="823" y="-85" type="qcurve"/>
    </contour>
    <contour>
      <point x="177" y="-85" type="line"/>
      <point x="127" y="-36"/>
      <point x="56" y="110"/>
      <point x="20" y="287"/>
      <point x="20" y="380" type="qcurve"/>
      <point x="20" y="474"/>
      <point x="56" y="650"/>
      <point x="127" y="796"/>
      <point x="177" y="845" type="qcurve"/>
      <point x="222" y="807" type="line"/>
      <point x="184" y="771"/>
      <point x="120" y="639"/>
      <point x="83" y="471"/>
      <point x="83" y="380" type="qcurve"/>
      <point x="83" y="290"/>
      <point x="120" y="121"/>
      <point x="184" y="-11"/>
      <point x="222" y="-47" type="qcurve"/>
    </contour>
    <contour>
      <point x="624" y="201" type="line"/>
      <point x="355" y="110" type="line"/>
      <point x="274" y="384" type="line"/>
      <point x="508" y="481" type="line"/>
      <point x="535" y="409" type="line"/>
      <point x="372" y="342" type="line"/>
      <point x="411" y="214" type="line"/>
      <point x="607" y="279" type="line"/>
      <point x="546" y="557" type="line"/>
      <point x="304" y="509" type="line"/>
      <point x="284" y="587" type="line"/>
      <point x="613" y="649" type="line"/>
      <point x="726" y="133" type="line"/>
      <point x="644" y="110" type="line"/>
    </contour>
  </outline>
</glyph>
<glyph name="a-bopo" format="2">
  <advance width="1000" height="1000"/>
  <unicode hex="311A"/>
  <outline>
    <contour>
      <point x="138" y="693" type="line"/>
      <point x="202" y="753" type="line"/>
      <point x="431" y="530" type="line"/>
      <point x="368" y="466" type="line"/>
    </contour>
    <contour>
      <point x="455" y="462" type="line"/>
      <point x="774" y="770" type="line"/>
      <point x="844" y="708" type="line"/>
      <point x="546" y="428" type="line"/>
      <point x="537" y="-47" type="line"/>
      <point x="443" y="-47" type="line"/>
    </contour>
  </outline>
</glyph>
<glyph name="ai-bopo" format="2">
  <advance width="1000" height="1000"/>
  <unicode hex="311E"/>
  <outline>
    <contour>
      <point x="147" y="348" type="line"/>
      <point x="175" y="566" type="line"/>
      <point x="256" y="558" type="line"/>
      <point x="239" y="427" type="line"/>
      <point x="410" y="438" type="line"/>
      <point x="403" y="365" type="line"/>
    </contour>
    <contour>
      <point x="516" y="367" type="line"/>
      <point x="523" y="445" type="line"/>
      <point x="839" y="471" type="line"/>
      <point x="766" y="-11" type="line"/>
      <point x="685" y="1" type="line"/>
      <point x="738" y="387" type="line"/>
    </contour>
    <contour>
      <point x="159" y="702" type="line"/>
      <point x="827" y="752" type="line"/>
      <point x="834" y="673" type="line"/>
      <point x="164" y="623" type="line"/>
    </contour>
    <contour>
      <point x="514" y="326" type="line"/>
      <point x="263" y="-24" type="line"/>
      <point x="192" y="17" type="line"/>
      <point x="430" y="354" type="line"/>
      <point x="452" y="614" type="line"/>
      <point x="539" y="612" type="line"/>
    </contour>
  </outline>
</glyph>
<glyph name="au-bopo" format="2">
  <advance width="1000" height="1000"/>
  <unicode hex="3120"/>
  <outline>
    <contour>
      <point x="745" y="89" type="line"/>
      <point x="176" y="-7" type="line"/>
      <point x="152" y="73" type="line"/>
      <point x="695" y="600" type="line"/>
      <point x="766" y="548" type="line"/>
      <point x="283" y="94" type="line"/>
      <point x="704" y="160" type="line"/>
      <point x="630" y="286" type="line"/>
      <point x="697" y="329" type="line"/>
      <point x="889" y="15" type="line"/>
      <point x="816" y="-32" type="line"/>
    </contour>
    <contour>
      <point x="156" y="538" type="line"/>
      <point x="220" y="591" type="line"/>
      <point x="289" y="514" type="line"/>
      <point x="463" y="759" type="line"/>
      <point x="542" y="720" type="line"/>
      <point x="367" y="480" type="line"/>
      <point x="295" y="507" type="line"/>
      <point x="423" y="364" type="line"/>
      <point x="345" y="316" type="line"/>
    </contour>
  </outline>
</glyph>
<glyph name="an-bopo" format="2">
  <advance width="1000" height="1000"/>
  <unicode hex="3122"/>
  <outline>
    <contour>
      <point x="689" y="406" type="line"/>
      <point x="609" y="416" type="line"/>
      <point x="641" y="663" type="line"/>
      <point x="181" y="622" type="line"/>
      <point x="168" y="700" type="line"/>
      <point x="743" y="753" type="line"/>
    </contour>
    <contour>
      <point x="696" y="-14" type="line"/>
      <point x="752" y="313" type="line"/>
      <point x="263" y="271" type="line"/>
      <point x="282" y="592" type="line"/>
      <point x="365" y="588" type="line"/>
      <point x="351" y="351" type="line"/>
      <point x="861" y="393" type="line"/>
      <point x="780" y="-31" type="line"/>
    </contour>
  </outline>
</glyph>
<glyph name="ang-bopo" format="2">
  <advance width="1000" height="1000"/>
  <unicode hex="3124"/>
  <outline>
    <contour>
      <point x="534" y="432" type="line"/>
      <point x="609" y="433" type="line"/>
      <point x="585" y="91" type="line"/>
      <point x="906" y="102" type="line"/>
      <point x="908" y="23" type="line"/>
      <point x="505" y="9" type="line"/>
    </contour>
    <contour>
      <point x="495" y="427" type="line"/>
      <point x="220" y="-15" type="line"/>
      <point x="156" y="26" type="line"/>
      <point x="417" y="452" type="line"/>
      <point x="441" y="745" type="line"/>
      <point x="523" y="742" type="line"/>
      <point x="504" y="536" type="line"/>
      <point x="841" y="555" type="line"/>
      <point x="845" y="479" type="line"/>
      <point x="498" y="460" type="line"/>
    </contour>
    <contour>
      <point x="161" y="516" type="line"/>
      <point x="391" y="529" type="line"/>
      <point x="385" y="453" type="line"/>
      <point x="166" y="441" type="line"/>
    </contour>
  </outline>
</glyph>
<glyph name="Afullwidth" format="2">
  <advance width="1000" height="1000"/>
  <unicode hex="FF21"/>
  <outline>
    <contour>
      <point x="661" y="228" type="line"/>
      <point x="397" y="198" type="line"/>
      <point x="389" y="283" type="line"/>
      <point x="628" y="308" type="line"/>
      <point x="467" y="702" type="line"/>
      <point x="545" y="732" type="line"/>
      <point x="853" y="11" type="line"/>
      <point x="763" y="-23" type="line"/>
    </contour>
    <contour>
      <point x="399" y="615" type="line"/>
      <point x="482" y="590" type="line"/>
      <point x="232" y="-27" type="line"/>
      <point x="147" y="-4" type="line"/>
    </contour>
  </outline>
</glyph>
<glyph name="afullwidth" format="2">
  <advance width="1000" height="1000"/>
  <unicode hex="FF41"/>
  <outline>
    <contour>
      <point x="628" y="69" type="line"/>
      <point x="348" y="-24" type="line"/>
      <point x="265" y="253" type="line"/>
      <point x="507" y="351" type="line"/>
      <point x="535" y="278" type="line"/>
      <point x="365" y="210" type="line"/>
      <point x="406" y="82" type="line"/>
      <point x="610" y="147" type="line"/>
      <point x="547" y="428" type="line"/>
      <point x="295" y="379" type="line"/>
      <point x="275" y="458" type="line"/>
      <point x="616" y="521" type="line"/>
      <point x="734" y="0" type="line"/>
      <point x="649" y="-24" type="line"/>
    </contour>
  </outline>
</glyph>
<glyph name="asciitilde.full.vert" format="2">
  <advance width="1000" height="1000"/>
  <outline>
    <contour>
      <point x="527" y="273" type="line"/>
      <point x="364" y="463" type="line"/>
      <point x="526" y="785" type="line"/>
      <point x="606" y="745" type="line"/>
      <point x="473" y="487" type="line"/>
      <point x="636" y="297" type="line"/>
      <point x="474" y="-25" type="line"/>
      <point x="394" y="15" type="line"/>
    </contour>
  </outline>
</glyph>
